{"title":"Frogs (1972) DVDrip","uid":10208517,"size":1571522576,"categoryP":"video","categoryS":"movies","magnet":"?xt=urn:btih:a385cca198695af4e858c6984b1887ba4ac95ea0&amp;dn=Frogs+%281972%29+DVDrip&amp;tr=udp%3A%2F%2Ftracker.openbittorrent.com%3A80&amp;tr=udp%3A%2F%2Fopen.demonii.com%3A1337&amp;tr=udp%3A%2F%2Ftracker.coppersurfer.tk%3A6969&amp;tr=udp%3A%2F%2Fexodus.desync.com%3A6969","seeders":0,"leechers":0,"uploader":"Pitufo7777","files":2,"time":1400886762,"description":"A great 70's eco-horror movie.\nGotta love these things!\nA tough one to find but since I had it I thought I would share.\n\nPlease SEED and Enjoy!\n\nPapaPitufo\n\n\n\nVideo\nID                                       : 0\nFormat                                   : MPEG-4 Visual\nFormat profile                           : Advanced Simple@L5\nFormat settings, BVOP                    : 1\nFormat settings, QPel                    : No\nFormat settings, GMC                     : No warppoints\nFormat settings, Matrix                  : Default (MPEG)\nCodec ID                                 : XVID\nCodec ID/Hint                            : XviD\nDuration                                 : 1h 30mn\nBit rate                                 : 2 122 Kbps\nWidth                                    : 704 pixels\nHeight                                   : 384 pixels\nDisplay aspect ratio                     : 1.85:1\nFrame rate                               : 23.976 fps\nColor space                              : YUV\nChroma subsampling                       : 4:2:0\nBit depth                                : 8 bits\nScan type                                : Progressive\nCompression mode                         : Lossy\nBits/(Pixel*Frame)                       : 0.327\nStream size                              : 1.34 GiB (91%)\nWriting library                          : XviD 1.2.0.dev47 (UTC 2006-11-01)\n\nAudio\nID                                       : 1\nFormat                                   : AC-3\nFormat/Info                              : Audio Coding 3\nMode extension                           : CM (complete main)\nFormat settings, Endianness              : Big\nCodec ID                                 : 2000\nDuration                                 : 1h 30mn\nBit rate mode                            : Constant\nBit rate                                 : 192 Kbps\nChannel(s)                               : 2 channels\nChannel positions                        : Front: L R\nSampling rate                            : 48.0 KHz\nBit depth                                : 16 bits\nCompression mode                         : Lossy\nStream size                              : 124 MiB (8%)\nAlignment                                : Aligned on interleaves\nInterleave, duration                     : 32 ms (0.77 video frame)\n","torrent":{"xt":"urn:btih:a385cca198695af4e858c6984b1887ba4ac95ea0","amp;dn":"Frogs+%281972%29+DVDrip","amp;tr":["udp%3A%2F%2Ftracker.openbittorrent.com%3A80","udp%3A%2F%2Fopen.demonii.com%3A1337","udp%3A%2F%2Ftracker.coppersurfer.tk%3A6969","udp%3A%2F%2Fexodus.desync.com%3A6969"],"infoHash":"a385cca198695af4e858c6984b1887ba4ac95ea0","infoHashBuffer":{"type":"Buffer","data":[163,133,204,161,152,105,90,244,232,88,198,152,75,24,135,186,74,201,94,160]},"announce":[],"urlList":[]}}